# MagicaVoxel @ Ephtracy

# material
mtllib Baby Plant.mtl
usemtl palette

# normals
vn -1 0 0
vn 1 0 0
vn 0 0 1
vn 0 0 -1
vn 0 -1 0
vn 0 1 0

# texcoords
vt 0.896484 0.5
vt 0.900391 0.5
vt 0.904297 0.5
vt 0.912109 0.5

# verts
v -3 6 1
v -3 6 -0
v -3 7 1
v -3 7 -0
v -2 6 -0
v -2 6 -1
v -2 7 -0
v -2 7 -1
v -1 3 1
v -1 3 -0
v -1 4 1
v -1 4 -0
v -1 6 3
v -1 6 2
v -1 7 3
v -1 7 2
v 0 0 1
v 0 0 -0
v 0 2 2
v 0 2 1
v 0 3 2
v 0 3 1
v 0 3 -0
v 0 3 -1
v 0 3 -2
v 0 4 1
v 0 4 -0
v 0 4 -1
v 0 4 -2
v 0 5 -0
v 0 5 -1
v 0 6 2
v 0 6 1
v 0 6 -0
v 0 6 -1
v 0 7 2
v 0 7 1
v 0 7 -0
v 0 7 -1
v 0 8 1
v 0 8 -0
v 1 6 4
v 1 6 3
v 1 6 -1
v 1 6 -2
v 1 7 4
v 1 7 3
v 1 7 -1
v 1 7 -2
v 2 4 1
v 2 4 -0
v 2 5 1
v 2 5 -0
v 2 7 1
v 2 7 -0
v 2 8 1
v 2 8 -0
v -1 6 -0
v -1 6 -1
v -1 7 -0
v -1 7 -1
v 1 0 1
v 1 0 -0
v 1 2 2
v 1 2 1
v 1 3 2
v 1 3 1
v 1 3 -0
v 1 3 -1
v 1 3 -2
v 1 4 1
v 1 4 -0
v 1 4 -1
v 1 4 -2
v 1 5 -0
v 1 5 -1
v 1 6 3
v 1 6 2
v 1 6 1
v 1 6 -0
v 1 6 -1
v 1 7 3
v 1 7 2
v 1 7 1
v 1 7 -0
v 1 7 -1
v 1 8 1
v 1 8 -0
v 2 3 1
v 2 3 -0
v 2 4 1
v 2 4 -0
v 2 6 4
v 2 6 3
v 2 6 1
v 2 6 -0
v 2 6 -1
v 2 6 -2
v 2 7 4
v 2 7 3
v 2 7 1
v 2 7 -0
v 2 7 -1
v 2 7 -2
v 3 4 1
v 3 4 -0
v 3 5 1
v 3 5 -0
v 3 7 1
v 3 7 -0
v 3 8 1
v 3 8 -0
v 1 6 4
v 1 7 4
v 2 6 4
v 2 7 4
v -1 6 3
v -1 7 3
v 1 6 3
v 1 7 3
v 0 2 2
v 0 3 2
v 1 2 2
v 1 3 2
v -3 6 1
v -3 7 1
v -1 3 1
v -1 4 1
v 0 0 1
v 0 2 1
v 0 3 1
v 0 4 1
v 0 6 1
v 0 7 1
v 0 8 1
v 1 0 1
v 1 2 1
v 1 3 1
v 1 4 1
v 1 6 1
v 1 7 1
v 1 8 1
v 2 3 1
v 2 4 1
v 2 5 1
v 2 6 1
v 2 7 1
v 2 8 1
v 3 4 1
v 3 5 1
v 3 7 1
v 3 8 1
v 0 3 -1
v 0 4 -1
v 1 3 -1
v 1 4 -1
v 1 6 -1
v 1 7 -1
v 2 6 -1
v 2 7 -1
v 1 6 3
v 1 7 3
v 2 6 3
v 2 7 3
v -1 6 2
v -1 7 2
v 0 6 2
v 0 7 2
v -3 6 -0
v -3 7 -0
v -2 6 -0
v -2 7 -0
v -1 3 -0
v -1 4 -0
v -1 6 -0
v -1 7 -0
v 0 0 -0
v 0 3 -0
v 0 4 -0
v 0 5 -0
v 0 6 -0
v 0 7 -0
v 0 8 -0
v 1 0 -0
v 1 3 -0
v 1 4 -0
v 1 5 -0
v 1 6 -0
v 1 7 -0
v 1 8 -0
v 2 3 -0
v 2 4 -0
v 2 5 -0
v 2 6 -0
v 2 7 -0
v 2 8 -0
v 3 4 -0
v 3 5 -0
v 3 7 -0
v 3 8 -0
v -2 6 -1
v -2 7 -1
v -1 6 -1
v -1 7 -1
v 0 4 -1
v 0 5 -1
v 0 6 -1
v 0 7 -1
v 1 4 -1
v 1 5 -1
v 1 6 -1
v 1 7 -1
v 0 3 -2
v 0 4 -2
v 1 3 -2
v 1 4 -2
v 1 6 -2
v 1 7 -2
v 2 6 -2
v 2 7 -2
v 0 0 1
v 1 0 1
v 0 0 -0
v 1 0 -0
v 0 2 2
v 1 2 2
v 0 2 1
v 1 2 1
v -1 3 1
v 0 3 1
v 1 3 1
v 2 3 1
v -1 3 -0
v 0 3 -0
v 1 3 -0
v 2 3 -0
v 0 3 -1
v 1 3 -1
v 0 3 -2
v 1 3 -2
v 2 4 1
v 3 4 1
v 0 4 -0
v 1 4 -0
v 2 4 -0
v 3 4 -0
v 0 4 -1
v 1 4 -1
v 1 6 4
v 2 6 4
v -1 6 3
v 1 6 3
v 2 6 3
v -1 6 2
v 0 6 2
v 1 6 2
v -3 6 1
v 0 6 1
v 1 6 1
v 2 6 1
v -3 6 -0
v -2 6 -0
v -1 6 -0
v 0 6 -0
v 1 6 -0
v 2 6 -0
v -2 6 -1
v -1 6 -1
v 0 6 -1
v 1 6 -1
v 2 6 -1
v 1 6 -2
v 2 6 -2
v 2 7 1
v 3 7 1
v 2 7 -0
v 3 7 -0
v 0 3 2
v 1 3 2
v 0 3 1
v 1 3 1
v -1 4 1
v 0 4 1
v 1 4 1
v 2 4 1
v -1 4 -0
v 0 4 -0
v 1 4 -0
v 2 4 -0
v 0 4 -1
v 1 4 -1
v 0 4 -2
v 1 4 -2
v 2 5 1
v 3 5 1
v 0 5 -0
v 1 5 -0
v 2 5 -0
v 3 5 -0
v 0 5 -1
v 1 5 -1
v 1 7 4
v 2 7 4
v -1 7 3
v 1 7 3
v 2 7 3
v -1 7 2
v 0 7 2
v 1 7 2
v -3 7 1
v 0 7 1
v 1 7 1
v 2 7 1
v -3 7 -0
v -2 7 -0
v -1 7 -0
v 0 7 -0
v 1 7 -0
v 2 7 -0
v -2 7 -1
v -1 7 -1
v 0 7 -1
v 1 7 -1
v 2 7 -1
v 1 7 -2
v 2 7 -2
v 0 8 1
v 1 8 1
v 2 8 1
v 3 8 1
v 0 8 -0
v 1 8 -0
v 2 8 -0
v 3 8 -0

# faces
f 3/1/1 2/1/1 1/1/1
f 4/1/1 2/1/1 3/1/1
f 7/1/1 6/1/1 5/1/1
f 8/1/1 6/1/1 7/1/1
f 11/3/1 10/3/1 9/3/1
f 12/3/1 10/3/1 11/3/1
f 15/2/1 14/2/1 13/2/1
f 16/2/1 14/2/1 15/2/1
f 20/4/1 18/4/1 17/4/1
f 21/3/1 20/3/1 19/3/1
f 22/4/1 18/4/1 20/4/1
f 22/3/1 20/3/1 21/3/1
f 23/4/1 18/4/1 22/4/1
f 28/3/1 25/3/1 24/3/1
f 29/3/1 25/3/1 28/3/1
f 30/3/1 27/3/1 26/3/1
f 30/3/1 28/3/1 27/3/1
f 31/3/1 28/3/1 30/3/1
f 33/3/1 30/3/1 26/3/1
f 34/3/1 30/3/1 33/3/1
f 36/1/1 33/1/1 32/1/1
f 37/1/1 33/1/1 36/1/1
f 38/2/1 35/2/1 34/2/1
f 39/2/1 35/2/1 38/2/1
f 40/1/1 38/1/1 37/1/1
f 41/1/1 38/1/1 40/1/1
f 46/2/1 43/2/1 42/2/1
f 47/2/1 43/2/1 46/2/1
f 48/2/1 45/2/1 44/2/1
f 49/2/1 45/2/1 48/2/1
f 52/2/1 51/2/1 50/2/1
f 53/2/1 51/2/1 52/2/1
f 56/1/1 55/1/1 54/1/1
f 57/1/1 55/1/1 56/1/1
f 58/1/2 59/1/2 60/1/2
f 60/1/2 59/1/2 61/1/2
f 62/4/2 63/4/2 65/4/2
f 64/3/2 65/3/2 66/3/2
f 65/4/2 63/4/2 67/4/2
f 66/3/2 65/3/2 67/3/2
f 67/4/2 63/4/2 68/4/2
f 69/3/2 70/3/2 73/3/2
f 73/3/2 70/3/2 74/3/2
f 71/3/2 72/3/2 75/3/2
f 72/3/2 73/3/2 75/3/2
f 75/3/2 73/3/2 76/3/2
f 71/3/2 75/3/2 79/3/2
f 79/3/2 75/3/2 80/3/2
f 77/2/2 78/2/2 82/2/2
f 78/1/2 79/1/2 83/1/2
f 82/2/2 78/2/2 83/2/2
f 83/1/2 79/1/2 84/1/2
f 80/2/2 81/2/2 85/2/2
f 85/2/2 81/2/2 86/2/2
f 84/1/2 85/1/2 87/1/2
f 87/1/2 85/1/2 88/1/2
f 89/3/2 90/3/2 91/3/2
f 91/3/2 90/3/2 92/3/2
f 93/2/2 94/2/2 99/2/2
f 99/2/2 94/2/2 100/2/2
f 95/1/2 96/1/2 101/1/2
f 101/1/2 96/1/2 102/1/2
f 97/2/2 98/2/2 103/2/2
f 103/2/2 98/2/2 104/2/2
f 105/2/2 106/2/2 107/2/2
f 107/2/2 106/2/2 108/2/2
f 109/1/2 110/1/2 111/1/2
f 111/1/2 110/1/2 112/1/2
f 115/2/3 114/2/3 113/2/3
f 116/2/3 114/2/3 115/2/3
f 119/2/3 118/2/3 117/2/3
f 120/2/3 118/2/3 119/2/3
f 123/3/3 122/3/3 121/3/3
f 124/3/3 122/3/3 123/3/3
f 131/3/3 128/3/3 127/3/3
f 132/3/3 128/3/3 131/3/3
f 133/1/3 126/1/3 125/1/3
f 134/1/3 126/1/3 133/1/3
f 136/4/3 130/4/3 129/4/3
f 137/4/3 130/4/3 136/4/3
f 138/3/3 132/3/3 131/3/3
f 138/3/3 133/3/3 132/3/3
f 139/3/3 133/3/3 138/3/3
f 140/3/3 133/3/3 139/3/3
f 141/1/3 135/1/3 134/1/3
f 142/1/3 135/1/3 141/1/3
f 143/3/3 139/3/3 138/3/3
f 144/3/3 139/3/3 143/3/3
f 146/1/3 141/1/3 140/1/3
f 147/1/3 141/1/3 146/1/3
f 149/2/3 145/2/3 144/2/3
f 150/2/3 145/2/3 149/2/3
f 151/1/3 148/1/3 147/1/3
f 152/1/3 148/1/3 151/1/3
f 155/3/3 154/3/3 153/3/3
f 156/3/3 154/3/3 155/3/3
f 159/2/3 158/2/3 157/2/3
f 160/2/3 158/2/3 159/2/3
f 161/2/4 162/2/4 163/2/4
f 163/2/4 162/2/4 164/2/4
f 165/2/4 166/2/4 167/2/4
f 167/2/4 166/2/4 168/2/4
f 169/1/4 170/1/4 171/1/4
f 171/1/4 170/1/4 172/1/4
f 173/3/4 174/3/4 178/3/4
f 178/3/4 174/3/4 179/3/4
f 175/1/4 176/1/4 181/1/4
f 181/1/4 176/1/4 182/1/4
f 177/4/4 178/4/4 184/4/4
f 178/3/4 179/3/4 185/3/4
f 184/4/4 178/4/4 185/4/4
f 185/3/4 179/3/4 186/3/4
f 180/3/4 181/3/4 187/3/4
f 187/3/4 181/3/4 188/3/4
f 182/1/4 183/1/4 189/1/4
f 189/1/4 183/1/4 190/1/4
f 185/3/4 186/3/4 191/3/4
f 191/3/4 186/3/4 192/3/4
f 188/1/4 189/1/4 194/1/4
f 194/1/4 189/1/4 195/1/4
f 192/2/4 193/2/4 197/2/4
f 197/2/4 193/2/4 198/2/4
f 195/1/4 196/1/4 199/1/4
f 199/1/4 196/1/4 200/1/4
f 201/1/4 202/1/4 203/1/4
f 203/1/4 202/1/4 204/1/4
f 205/3/4 206/3/4 209/3/4
f 209/3/4 206/3/4 210/3/4
f 207/2/4 208/2/4 211/2/4
f 211/2/4 208/2/4 212/2/4
f 213/3/4 214/3/4 215/3/4
f 215/3/4 214/3/4 216/3/4
f 217/2/4 218/2/4 219/2/4
f 219/2/4 218/2/4 220/2/4
f 223/4/5 222/4/5 221/4/5
f 224/4/5 222/4/5 223/4/5
f 227/3/5 226/3/5 225/3/5
f 228/3/5 226/3/5 227/3/5
f 233/3/5 230/3/5 229/3/5
f 234/3/5 230/3/5 233/3/5
f 235/3/5 232/3/5 231/3/5
f 236/3/5 232/3/5 235/3/5
f 239/3/5 238/3/5 237/3/5
f 240/3/5 238/3/5 239/3/5
f 245/2/5 242/2/5 241/2/5
f 246/2/5 242/2/5 245/2/5
f 247/3/5 244/3/5 243/3/5
f 248/3/5 244/3/5 247/3/5
f 252/2/5 250/2/5 249/2/5
f 253/2/5 250/2/5 252/2/5
f 254/2/5 252/2/5 251/2/5
f 255/2/5 252/2/5 254/2/5
f 256/2/5 252/2/5 255/2/5
f 258/1/5 256/1/5 255/1/5
f 259/1/5 256/1/5 258/1/5
f 261/1/5 258/1/5 257/1/5
f 262/1/5 258/1/5 261/1/5
f 263/1/5 258/1/5 262/1/5
f 264/1/5 258/1/5 263/1/5
f 265/1/5 260/1/5 259/1/5
f 266/1/5 260/1/5 265/1/5
f 267/1/5 263/1/5 262/1/5
f 268/1/5 263/1/5 267/1/5
f 269/2/5 265/2/5 264/2/5
f 270/2/5 265/2/5 269/2/5
f 272/2/5 271/2/5 270/2/5
f 273/2/5 271/2/5 272/2/5
f 276/1/5 275/1/5 274/1/5
f 277/1/5 275/1/5 276/1/5
f 278/3/6 279/3/6 280/3/6
f 280/3/6 279/3/6 281/3/6
f 282/3/6 283/3/6 286/3/6
f 286/3/6 283/3/6 287/3/6
f 284/3/6 285/3/6 288/3/6
f 288/3/6 285/3/6 289/3/6
f 290/3/6 291/3/6 292/3/6
f 292/3/6 291/3/6 293/3/6
f 294/2/6 295/2/6 298/2/6
f 298/2/6 295/2/6 299/2/6
f 296/3/6 297/3/6 300/3/6
f 300/3/6 297/3/6 301/3/6
f 302/2/6 303/2/6 305/2/6
f 305/2/6 303/2/6 306/2/6
f 304/2/6 305/2/6 307/2/6
f 307/2/6 305/2/6 308/2/6
f 308/2/6 305/2/6 309/2/6
f 308/1/6 309/1/6 311/1/6
f 311/1/6 309/1/6 312/1/6
f 310/1/6 311/1/6 314/1/6
f 314/1/6 311/1/6 315/1/6
f 315/1/6 311/1/6 316/1/6
f 316/1/6 311/1/6 317/1/6
f 312/1/6 313/1/6 318/1/6
f 318/1/6 313/1/6 319/1/6
f 315/1/6 316/1/6 320/1/6
f 320/1/6 316/1/6 321/1/6
f 317/2/6 318/2/6 322/2/6
f 322/2/6 318/2/6 323/2/6
f 323/2/6 324/2/6 325/2/6
f 325/2/6 324/2/6 326/2/6
f 327/1/6 328/1/6 331/1/6
f 331/1/6 328/1/6 332/1/6
f 329/1/6 330/1/6 333/1/6
f 333/1/6 330/1/6 334/1/6
